<svg xmlns="http://www.w3.org/2000/svg" viewBox="0 0 64 64">
  <defs>
    <linearGradient id="bg" x1="8" y1="6" x2="56" y2="60" gradientUnits="userSpaceOnUse">
      <stop stop-color="#123954"/>
      <stop offset="1" stop-color="#07111F"/>
    </linearGradient>
    <linearGradient id="cyan" x1="18" y1="15" x2="48" y2="49" gradientUnits="userSpaceOnUse">
      <stop stop-color="#80ECFF"/>
      <stop offset="1" stop-color="#27B9E6"/>
    </linearGradient>
  </defs>
  <rect x="2" y="2" width="60" height="60" rx="15" fill="url(#bg)" stroke="#63DDF5" stroke-opacity=".38" stroke-width="2"/>
  <path d="M32 8 51 15v15c0 13-7.7 21.5-19 27-11.3-5.5-19-14-19-27V15L32 8Z" fill="#071522" stroke="url(#cyan)" stroke-width="2.7" stroke-linejoin="round"/>
  <ellipse cx="33" cy="36" rx="12" ry="8.5" fill="url(#cyan)"/>
  <path d="m22 32-7-4 2.2 7.2-3.8 4.1 10.4-1.2Z" fill="#46D4F0"/>
  <path d="m30 43 4 7.5 4.5-7Z" fill="#24AFCF"/>
  <circle cx="39" cy="34" r="1.3" fill="#E7FCFF"/>
  <path d="M30 27c1-2.7 2.6-3.8 4.7-3.7M33 27c1.2-2.4 3-3.2 5-2.8" fill="none" stroke="#80ECFF" stroke-width="1.8" stroke-linecap="round"/>
</svg>
